<?xml version="1.0" standalone="no"?>
<!DOCTYPE svg PUBLIC "-//W3C//DTD SVG 1.1//EN" "http://www.w3.org/Graphics/SVG/1.1/DTD/svg11.dtd" >
<!--
2013-9-30: Created.
-->
<svg>
<metadata>
Created by iconfont
</metadata>
<defs>

<font id="iconfont" horiz-adv-x="1024" >
  <font-face
    font-family="iconfont"
    font-weight="500"
    font-stretch="normal"
    units-per-em="1024"
    ascent="896"
    descent="-128"
  />
    <missing-glyph />
    
    <glyph glyph-name="x" unicode="x" horiz-adv-x="1001"
d="M281 543q-27 -1 -53 -1h-83q-18 0 -36.5 -6t-32.5 -18.5t-23 -32t-9 -45.5v-76h912v41q0 16 -0.5 30t-0.5 18q0 13 -5 29t-17 29.5t-31.5 22.5t-49.5 9h-133v-97h-438v97zM955 310v-52q0 -23 0.5 -52t0.5 -58t-10.5 -47.5t-26 -30t-33 -16t-31.5 -4.5q-14 -1 -29.5 -0.5
t-29.5 0.5h-32l-45 128h-439l-44 -128h-29h-34q-20 0 -45 1q-25 0 -41 9.5t-25.5 23t-13.5 29.5t-4 30v167h911zM163 247q-12 0 -21 -8.5t-9 -21.5t9 -21.5t21 -8.5q13 0 22 8.5t9 21.5t-9 21.5t-22 8.5zM316 123q-8 -26 -14 -48q-5 -19 -10.5 -37t-7.5 -25t-3 -15t1 -14.5
t9.5 -10.5t21.5 -4h37h67h81h80h64h36q23 0 34 12t2 38q-5 13 -9.5 30.5t-9.5 34.5q-5 19 -11 39h-368zM336 498v228q0 11 2.5 23t10 21.5t20.5 15.5t34 6h188q31 0 51.5 -14.5t20.5 -52.5v-227h-327z" />
    

    
    <glyph glyph-name="qiache" unicode="&#59060;" d="M389.818775 82.452265c0-67.178005-54.481845-121.659851-121.659851-121.659851-67.178005 0-121.660874 54.480822-121.660874 121.659851s54.481845 121.659851 121.660874 121.659851C335.33693 204.112116 389.818775 149.631294 389.818775 82.452265zM268.158924 155.221616c-40.222073 0-72.816422-32.594349-72.816422-72.815399 0-40.175001 32.595372-72.768327 72.816422-72.768327 40.22105 0 72.767304 32.594349 72.767304 72.768327C340.927251 122.627267 308.379974 155.221616 268.158924 155.221616zM875.557668 82.405193c0-67.178005-54.481845-121.659851-121.659851-121.659851-67.178005 0-121.660874 54.480822-121.660874 121.659851 0 67.176982 54.481845 121.659851 121.660874 121.659851C821.074799 204.065044 875.557668 149.583199 875.557668 82.405193zM753.897817 155.174544c-40.222073 0-72.816422-32.595372-72.816422-72.816422 0-40.173978 32.595372-72.767304 72.816422-72.767304 40.22105 0 72.767304 32.594349 72.767304 72.767304C826.665121 122.579171 794.118867 155.174544 753.897817 155.174544zM607.886349 228.368566c0-13.407358-10.896164-24.303522-24.303522-24.303522L438.89961 204.065044c-13.407358 0-24.303522 10.896164-24.303522 24.303522l0 0c0 13.407358 10.896164 24.303522 24.303522 24.303522l144.68424 0C596.990185 252.672088 607.886349 241.775924 607.886349 228.368566L607.886349 228.368566zM607.981517 82.405193c0-13.408381-10.896164-24.303522-24.303522-24.303522L438.994778 58.101671c-13.408381 0-24.303522 10.895141-24.303522 24.303522l0 0c0 13.407358 10.895141 24.303522 24.303522 24.303522l144.68424 0C597.085352 106.708715 607.981517 95.812551 607.981517 82.405193L607.981517 82.405193zM99.265306 591.500027 535.118022 591.500027c0 0 0-264.543072 0-293.348118s48.986691-28.045753 48.986691 0-0.284479 294.863634 0 313.055972c0.283456 18.192338-11.655458 28.046776-24.25645 28.046776-12.602016 0-459.824687 0-481.049081 0-21.223371 0-27.287483-10.80202-27.287483-23.214724 0-12.411681 0.047072-508.10018 0-527.855106-0.048095-19.707854 7.579629-30.082132 27.287483-30.082132 13.644765 0 0 0 17.434068 0 34.109866 0 34.868135 48.607044 2.27481 48.607044L99.265306 591.500027zM680.655699 542.98815l157.664879 0 84.896552-193.765075 0-242.513336c-31.078833 1.183965-31.836079-48.086182 0-48.607044 21.223371 0 24.729218 0 24.729218 0s24.539906 1.848091 24.539906 24.303522 0 277.145088 0 277.145088-83.569324 196.323341-93.233428 213.757408c-9.665127 17.434068-9.665127 17.434068-28.331255 17.434068-18.666128 0-166.477592 0-189.974749 0s-28.709879-8.337899-28.709879-27.288506 0.095167-228.91769 0-251.6576c-0.094144-22.73991 4.217045-34.725896 24.635073-38.657438 20.419052-3.932566 148.85319-28.804023 177.657212-34.868135s38.657438 43.207058 9.854439 47.75463c-34.110889 6.774287-163.728992 32.594349-163.728992 32.594349L680.654676 542.98815z"  horiz-adv-x="1024" />

    
    <glyph glyph-name="tumblr" unicode="&#58958;" d="M747.696582 11.884047c-17.758456-7.841595-36.798091-11.763928-57.05853-11.763928-22.363334 0-40.606837 3.297093-54.813397 9.945513-14.208607 6.650467-26.882254 17.675568-38.050618 33.07735-11.138688 15.458063-18.753109 36.770462-22.816658 64.049758-4.064572 27.278273-6.081509 19.606547-6.081509 65.640999L568.87587 375.665307l196.780759 0L765.656629 561.278725 568.87587 561.278725 568.87587 737.002912 411.820881 737.002912c-5.597485-43.135426-10.911514-75.984578-15.969717-98.546434-5.085832-22.505573-12.07706-41.259706-20.941961-56.20714-8.865925-14.889105-21.170159-27.108405-36.883025-36.599569-15.742543-9.490142-36.287461-16.139585-61.633732-19.947308l0-150.036132L389.0032 375.66633l0-281.089933c0-77.348646 15.969717-134.122697 47.938825-170.382529 31.93841-36.31509 81.610716-43.98784 146.08617-54.445006 37.765115-6.138814 64.532759-8.411577 100.051717-3.921309 43.646056 5.51255 89.197508 17.049305 115.425869 25.347295l1.676176 154.469094C782.933107 30.924705 765.428432 19.671407 747.696582 11.884047z"  horiz-adv-x="1024" />

    
    <glyph glyph-name="tuiche" unicode="&#58898;" d="M683.252 652.324c9.785 5.553 22.478 1.852 27.979-8.199l190.997-330.741c5.659-9.257 2.222-22.532-7.564-27.927l-1.003-0.424c-109.86-63.366-220.035-127.155-329.684-190.679-10.049-5.343-22.532-2.114-28.457 7.669l-190.837 330.635c-5.395 10.102-2.433 22.532 7.352 28.033l331.217 191.631zM686.107 606.042v0l-78.229-45.383 51.307-88.279c5.343-9.256 2.222-22.533-7.879-27.928l-103.513-59.875c-9.837-5.871-22.584-2.169-28.245 7.882l-51.252 88.225-77.489-45.065 170.21-295.091 78.070 44.96-51.040 88.171c-5.873 10.155-2.488 22.64 7.563 28.034l103.776 59.875c9.31 5.871 22.586 2.643 28.033-7.089l50.937-88.329 77.488 44.641-169.736 295.25zM534.571 75.315v0c16.184 0 31.84-3.28 46.597-9.31l328.73 189.515c16.185 9.627 37.237 3.965 47.075-12.695 9.098-16.713 3.649-37.554-13.011-47.074l-308.368-178.143c10.315-17.402 16.715-38.294 16.715-60.14 0-32.108-13.223-61.516-34.856-82.566-21.316-21.846-50.777-34.91-82.883-34.91-33.112 0-62.31 13.066-83.467 34.91l-2.115 1.639c-19.939 21.315-32.158 49.878-32.158 80.927 0 32.634 13.277 62.042 34.275 83.465l2.962 3.174-273.67 474.133h-83.464c-19.147 0-34.381 16.027-34.381 34.91 0 18.882 15.233 34.38 34.381 34.38h103.458c13.276 0 25.6-8.199 30.996-19.888l285.518-493.069c5.393 0.476 11.317 0.742 17.666 0.742v0zM568.844-7.94v0c-8.992 8.622-21.051 14.282-34.274 14.282-13.754 0-26.025-5.66-34.382-14.282-9.098-8.832-14.705-20.786-14.705-34.591 0-12.429 4.866-24.224 13.223-32.794l1.481-1.269c8.357-8.78 20.627-14.177 34.382-14.177 13.222 0 25.282 5.396 34.274 14.177v-0.266c8.622 8.677 13.751 20.838 13.751 34.329 0.001 13.804-5.341 25.759-13.75 34.591v0zM572.123 540.349v0l-68.021-39.194 41.257-70.189 67.491 38.982-40.727 70.4zM701.871 315.924v0l-67.703-39.247 40.673-70.399 67.492 39.458-40.463 70.189z"  horiz-adv-x="1024" />

    
    <glyph glyph-name="clocko" unicode="&#59981;" d="M585.216 585.142857l0-256q0-7.972571-5.12-13.165714t-13.165714-5.12l-182.857143 0q-7.972571 0-13.165714 5.12t-5.12 13.165714l0 36.571429q0 7.972571 5.12 13.165714t13.165714 5.12l128 0 0 201.142857q0 7.972571 5.12 13.165714t13.165714 5.12l36.571429 0q7.972571 0 13.165714-5.12t5.12-13.165714zM822.930286 384q0 84.553143-41.691429 156.013714t-113.152 113.152-156.013714 41.691429-156.013714-41.691429-113.152-113.152-41.691429-156.013714 41.691429-156.013714 113.152-113.152 156.013714-41.691429 156.013714 41.691429 113.152 113.152 41.691429 156.013714zM950.930286 384q0-119.442286-58.88-220.306286t-159.744-159.744-220.306286-58.88-220.306286 58.88-159.744 159.744-58.88 220.306286 58.88 220.306286 159.744 159.744 220.306286 58.88 220.306286-58.88 159.744-159.744 58.88-220.306286z"  horiz-adv-x="1024" />

    
    <glyph glyph-name="pinterest" unicode="&#59159;" d="M441.708505 219.644161c-17.722693-88.615511-37.491375-160.52979-59.303999-215.743858-21.812624-55.214068-54.532072-99.180826-98.158343-131.900273-4.089931 50.442141-6.475383 91.34145-7.157379 122.697929-0.681996 31.356478 3.067448 68.84683 11.24731 112.473101 8.179862 43.626271 15.677728 79.071658 22.49462 106.338205 6.816892 27.266547 15.677728 61.008478 26.584551 101.225791 10.906823 40.217314 19.086685 73.959244 24.539586 101.225791-16.359724 35.446409-22.835107 74.981727-19.427172 118.607998 3.407935 43.626271 19.767659 79.753654 49.079171 108.38317 29.311513 28.629517 63.053443 35.446409 101.225791 20.449655 27.266547-10.906823 42.262279-31.014969 44.98924-60.326482 2.726961-29.311513-1.704479-61.689451-13.292276-97.13586-11.587797-35.446409-22.49462-70.551309-32.719448-105.315722-10.224827-34.764413-11.587797-65.438895-4.089931-92.023446 7.497866-26.584551 28.970003-43.284762 64.416412-50.101654 46.35221-9.542831 87.593029 3.407935 123.720411 38.854344 36.127383 35.446409 61.348964 80.09414 75.663723 133.945239 14.314758 53.851098 18.064203 109.405653 11.24731 166.664686-6.816892 57.259033-25.221582 100.885304-55.214068 130.87779-42.262279 43.626271-93.727925 67.483861-154.394893 71.573792-60.666968 4.089931-116.222545-7.157379-166.664686-33.74193-50.442141-26.584551-91.34145-66.461378-122.697929-119.63048-31.356478-53.169102-42.262279-111.110132-32.719448-173.822065 2.726961-14.996754 10.224827-32.719448 22.49462-53.169102 12.269793-20.449655 19.427172-36.468892 21.472137-48.056689 2.044965-11.587797-3.749444-34.423926-17.382207-68.506343-99.521312 23.176616-147.237514 101.566278-143.147583 235.17103 2.726961 94.068412 38.513857 173.822065 107.360687 239.260961 68.84683 65.438895 148.259997 103.611243 238.238478 114.518067 111.791105 12.269793 210.631444-7.157379 296.519994-58.281516 85.88855-51.124137 134.967721-125.765377 147.237514-223.92372 17.722693-119.970967-4.771927-228.013651-67.483861-324.127028-62.711934-96.113377-148.600484-140.080135-257.66565-131.900273-14.996754 1.362969-29.311513 4.430418-42.944275 9.202345-13.632762 4.771927-23.85759 9.202345-30.674482 13.292276-6.816892 4.089931-17.382207 11.24731-31.696965 21.472137-14.314758 10.224827-24.880072 17.382207-31.696965 21.472137 0 0 0 0 0 0"  horiz-adv-x="1024" />

    
    <glyph glyph-name="xinfeng" unicode="&#58881;" d="M928.468 517.056l-125.261 94.464v140.602c0 20.217-16.377 36.595-36.595 36.595h-198.374l-31.872 24c-14.304 14.304-37.459 14.304-51.744 0l-31.949-24h-198.317c-20.237 0-36.595-16.377-36.595-36.595v-140.064l-122.285-92.006c0 0-24.077-18.374-24.077-46.329v-490.003c0-20.256 16.377-36.614 36.595-36.614h804.979c20.237 0 36.595 16.377 36.595 36.614v493.977c0 21.734-21.101 39.36-21.101 39.36M254.355 558.106v194.016h512.256v-379.411l-165.254-121.863-64.992 49.594c-14.304 14.285-37.459 14.285-51.744 0l-64.992-49.594-165.254 121.863v185.395zM144.589 477.696l73.191 53.606v-131.616l-73.191 53.991v24.019zM144.589 401.184l235.834-180.249-235.834-180.019v360.269zM186.387 20.333l324.096 238.983 324.096-238.983h-648.192zM876.397 40.915l-235.718 179.943 235.718 180.365v-360.308zM876.397 453.657l-73.191-53.991v132.134l73.191-53.549v-24.595zM327.526 642.355h365.894v-36.595h-365.894v36.595zM327.526 532.589h365.894v-36.595h-365.894v36.595zM327.526 405.773h365.894v-36.595h-365.894v36.595z"  horiz-adv-x="1024" />

    
    <glyph glyph-name="dizhi" unicode="&#58955;" d="M328.704 405.056c6.144-9.216 31.744-48.128 160.768-232.448l1.024-1.024c7.168-9.216 19.456-15.36 30.72-15.36 12.288 0 24.576 6.144 30.72 16.384 55.296 79.872 159.744 230.4 163.84 235.52l1.024 1.024c21.504 35.84 33.792 77.824 33.792 119.808 0 125.952-102.4 229.376-229.376 229.376s-229.376-102.4-229.376-229.376c0-44.032 12.288-86.016 36.864-123.904l0 0zM520.192 699.968c94.208 0 171.008-76.8 171.008-171.008 0-30.72-8.192-60.416-24.576-89.088-6.144-9.216-90.112-130.048-145.408-209.92-43.008 61.44-136.192 195.584-145.408 207.872-17.408 26.624-27.648 58.368-27.648 90.112 1.024 94.208 77.824 172.032 172.032 172.032zM520.192 400.96c69.632 0 126.976 57.344 126.976 126.976s-57.344 126.976-126.976 126.976c-69.632 0-126.976-57.344-126.976-126.976s56.32-126.976 126.976-126.976zM520.192 597.568c37.888 0 68.608-30.72 68.608-68.608 0-38.912-30.72-68.608-68.608-68.608-37.888 0-68.608 30.72-68.608 68.608s30.72 68.608 68.608 68.608zM1006.592 102.976l-142.336 275.456-117.76 0-46.08-59.392 128 0 130.048-248.832 2.048-2.048c7.168-9.216 7.168-21.504 2.048-31.744s-15.36-16.384-27.648-16.384l-844.8 0c-12.288 0-22.528 6.144-27.648 16.384-5.12 11.264-4.096 22.528 3.072 32.768l1.024 1.024 128 249.856 145.408 0-48.128 59.392-133.12 0-142.336-276.48c-19.456-27.648-21.504-62.464-6.144-91.136 16.384-30.72 46.08-49.152 80.896-49.152l844.8 0c33.792 0 64.512 18.432 79.872 49.152 13.312 29.696 10.24 64.512-9.216 91.136z"  horiz-adv-x="1024" />

    
    <glyph glyph-name="search" unicode="&#58899;" d="M937.024 70.528l-176.512 176.576c-2.624 2.624-5.568 4.608-8.32 6.784 38.208 58.688 60.544 128.512 60.544 203.776 0 206.784-167.552 374.4-374.4 374.4C231.616 832.064 64 664.448 64 457.664c0-206.784 167.68-374.4 374.4-374.4 75.264 0 145.216 22.4 203.904 60.608 2.176-2.816 4.096-5.696 6.72-8.256l176.512-176.576C840.96-56.32 861.056-64 881.216-64c20.16 0 40.32 7.68 55.744 23.04C967.68-10.176 967.68 39.744 937.024 70.528M438.336 201.536c-141.184 0-256.128 114.944-256.128 256.128 0 141.184 114.944 256.128 256.128 256.128 141.184 0 256.128-114.944 256.128-256.128C694.464 316.48 579.52 201.536 438.336 201.536"  horiz-adv-x="1024" />

    
    <glyph glyph-name="jiantou-copy" unicode="&#58888;" d="M464.64-77.823h68.48c5.185 0 9.344 4.224 9.344 9.344v947.328c0 5.185-4.224 9.344-9.344 9.344h-68.48c-5.185 0-9.344-4.224-9.344-9.344v-947.264c0-5.185 4.224-9.408 9.344-9.408zM463.809-90.048l20.544-21.376c11.328-11.776 29.76-11.775 41.089 0l225.984 234.816c11.328 11.776 11.328 30.912 0 42.688l-20.544 21.376c-11.328 11.776-29.76 11.775-41.089 0l-225.984-234.816c-11.328-11.776-11.328-30.912 0-42.688zM242.56 130.688l232.768-241.856c11.712-12.16 30.656-12.159 42.303 0l21.184 22.016c11.712 12.16 11.712 31.808 0 43.968l-232.768 241.856c-11.712 12.16-30.656 12.159-42.303 0l-21.184-22.016c-11.712-12.16-11.712-31.808 0-43.968z"  horiz-adv-x="1024" />

    
    <glyph glyph-name="google" unicode="&#58949;" d="M261.44 387.2l404.928 0c-4.48-101.888-37.632-184.384-99.328-247.68-61.696-63.104-139.904-94.72-234.56-94.72-49.088 0-94.4 9.472-135.872 28.224-41.536 18.88-78.72 46.72-111.68 83.84-27.904 30.784-49.024 65.792-63.36 105.152C7.168 301.184 0 343.232 0 388.032c0 45.632 8.704 88.96 26.112 129.92C43.456 558.912 68.928 595.84 102.464 628.672c31.744 31.68 67.264 55.36 106.624 70.976C248.192 715.328 291.776 723.2 339.776 723.2c66.112 0 124.16-15.424 174.08-46.4 49.856-30.912 87.488-74.944 113.088-131.968L510.4 544.832c-21.568 27.84-47.36 48.704-77.312 62.72C403.008 621.632 369.472 628.672 332.608 628.672c-30.912 0-60.288-5.76-88.192-17.408-27.904-11.712-52.672-28.608-74.24-50.688C147.648 537.536 130.048 510.848 117.504 480.32 104.832 449.856 98.624 418.816 98.624 387.2c0-34.048 5.632-66.304 17.088-96.64 11.392-30.336 27.776-56.512 48.96-78.656 22.464-23.296 48.512-41.344 77.888-54.208 29.376-12.864 59.328-19.264 89.92-19.264 49.792 0 93.696 13.184 131.84 39.616 38.016 26.368 69.376 65.472 94.016 117.12L261.44 295.168 261.44 387.2zM859.008 241.472 859.008 359.744 741.632 359.744 741.632 409.216 859.008 409.216 859.008 526.592 909.056 526.592 909.056 409.216 1026.496 409.216 1026.496 359.744 909.056 359.744 909.056 241.472Z"  horiz-adv-x="1027" />

    
    <glyph glyph-name="dianhua" unicode="&#58966;" d="M684.97354 748.80866l0.214894-28.852118c-71.632457-0.533143-129.402185-59.222823-128.869043-130.801045l-28.852118-0.214894C526.815427 676.441469 597.446068 748.156814 684.97354 748.80866zM474.27684 587.653283l-28.852118-0.214894c-0.479931 64.520479 24.197098 125.403105 69.496817 171.380252 45.325301 45.978171 105.780185 71.558779 170.33341 72.03871l0.214894-28.852118c-56.838519-0.422625-110.080118-22.956851-149.989059-63.436798C495.593332 698.083371 473.854215 644.465197 474.27684 587.653283zM116.886127 93.585701l113.045659-111.375623c30.175253-29.730115 70.168106-45.956681 112.529913-45.641503 42.388413 0.315178 82.129532 17.135262 111.886253 47.311539l404.965242 411.063123c61.411675 62.33265 60.662615 162.999374-1.670036 224.416166L744.625128 730.734002 550.5899 533.818167l102.768595-101.272521L413.68381 189.256644l-102.790084 101.244892L116.886127 93.585701zM157.700695 93.8886l153.496953 155.851581 102.790084-101.272521 280.153608 284.380886-102.763478 101.272521 153.551188 155.798369 92.459808-91.1203c50.972928-50.247404 51.585889-132.60718 1.366114-183.606715L433.793824 4.134413c-24.372084-24.704658-56.845683-38.45687-91.547019-38.714743-34.648125-0.257873-67.376527 13.009292-92.112907 37.34863L157.700695 93.8886z"  horiz-adv-x="1024" />

    
    <glyph glyph-name="phone" unicode="&#58912;" d="M696.037 75.659h-0.013l-3.324 0.074c-77.326 3.957-181.757 76.737-279.377 194.697l-36.055 43.554c-97.623 117.968-148.765 233.184-136.807 308.206 8.443 52.928 87.132 97.595 132.095 97.595 22.147 0 30.172-11.021 32.975-17.601 25.454-45.236 56.95-123.902 57.095-152.113l0.010-2.010-0.721-1.876c-5.614-14.829-18.174-21.933-29.258-28.202-14.598-8.249-22.896-13.666-23.908-29.261-0.303-4.736 3.78-26.265 68.184-105.658l27.532-33.247c64.584-76.216 84.905-84.424 89.662-85.101 15.57-2.164 22.906 4.662 34.107 16.941 8.527 9.349 18.199 19.959 34.162 22.298l2.019 0.289 1.989-0.426c28.124-5.931 100.113-52.323 140.983-86.771 5.899-3.913 16.196-15.543 8.041-41.227-12.79-40.336-68.553-100.163-119.394-100.163v0 0zM696.037 75.659z"  horiz-adv-x="1024" />

    
    <glyph glyph-name="icons64x6442" unicode="&#58981;" d="M512 18.752 204.416 326.32c-87.92 87.92-87.92 230.976 0 318.896 84.208 84.224 219.056 87.808 307.552 10.592 88.464 77.2 223.328 73.664 307.584-10.56 82.704-82.704 87.616-214.208 14.704-302.704l1.008-0.48L512 18.752zM226.032 349.968 512 64l284.928 284.976c75.44 75.44 75.44 198.208 0 273.648-75.424 75.424-198.192 75.456-273.648 0l-11.312-11.312-11.312 11.312c-75.424 75.392-198.192 75.376-273.616-0.032C151.952 547.472 151.616 425.488 226.032 349.968z"  horiz-adv-x="1024" />

    
    <glyph glyph-name="shoppingcart" unicode="&#58921;" d="M1038.396235 679.845647c-26.051765-106.736941-79.299765-323.704471-101.225412-404.118588-3.102118-11.324235-25.780706-31.352471-38.942118-31.352471-84.269176 0-316.355765 0-401.618824 0-16.474353 0-40.056471 12.257882-51.139765 30.147765-9.848471 15.932235-20.329412 31.894588-20.329412 31.894588L131.312941 833.927529 31.352471 833.927529c-0.090353 0-0.180706-0.060235-0.301176-0.060235C13.914353 833.867294 0 847.781647 0 864.948706c0 17.106824 13.854118 30.991059 30.960941 31.051294L30.960941 896l65.746824 0 58.157176 0 12.137412 0 167.755294-301.176471 618.977882 0 25.148235 83.968L495.646118 678.791529 495.646118 679.634824c-0.210824 0-0.391529-0.120471-0.602353-0.120471-17.136941 0-31.051294 13.914353-31.051294 31.051294 0 17.167059 13.914353 31.051294 31.051294 31.051294 1.385412 0 2.590118-0.602353 3.945412-0.783059l492.303059 0 6.204235 0c0 0 11.956706 0.512 24.786824 0 23.853176-0.963765 27.708235-16.775529 23.431529-31.081412C1043.184941 701.349647 1041.167059 691.139765 1038.396235 679.845647zM495.375059 306.537412l-0.180706-0.120471L867.388235 306.416941 890.608941 384 452.216471 384 495.375059 306.537412zM368.338824 534.588235l50.627765-90.895059C419.900235 443.783529 420.713412 444.235294 421.647059 444.235294l487.002353 0 27.045647 90.352941L368.338824 534.588235zM418.364235 150.588235c77.191529 0 139.776-62.373647 139.776-139.294118S495.555765-128 418.364235-128c-77.191529 0-139.776 62.373647-139.776 139.294118S341.172706 150.588235 418.364235 150.588235zM418.364235-65.897412c42.887529 0 77.643294 34.544941 77.643294 77.191529 0 42.616471-34.755765 77.191529-77.643294 77.191529-42.887529 0-77.643294-34.544941-77.643294-77.191529C340.720941-31.322353 375.476706-65.897412 418.364235-65.897412zM944.941176 150.588235c76.920471 0 139.294118-62.373647 139.294118-139.294118S1021.861647-128 944.941176-128s-139.294118 62.373647-139.294118 139.294118S868.020706 150.588235 944.941176 150.588235zM944.459294-65.897412c42.887529 0 77.643294 34.544941 77.643294 77.191529 0 42.616471-34.755765 77.191529-77.643294 77.191529-42.887529 0-77.643294-34.544941-77.643294-77.191529C866.816-31.322353 901.571765-65.897412 944.459294-65.897412z"  horiz-adv-x="1085" />

    
    <glyph glyph-name="shangla" unicode="&#58892;" d="M864.7 128.8l74.9 74.9L589.5 553.8l0.2 0.2-74.2 74.2-0.2-0.2-0.2 0.2-74.9-74.9 0.2-0.2L95.3 207.9l74.2-74.2 345.1 345.2L864.7 128.8z"  horiz-adv-x="1024" />

    
    <glyph glyph-name="shangla1" unicode="&#59021;" d="M512.062 542.755l-434.89-418.547c-15.824-15.717-41.43-15.717-57.363 0-15.824 15.714-15.824 41.1 0 56.781l463.498 458.913c15.895 15.717 41.541 15.718 57.363 0l463.498-458.913c15.895-15.717 15.823-41.101 0-56.781-15.751-15.717-41.43-15.717-57.363 0l-434.74 418.547zM512.062 542.755z"  horiz-adv-x="1024" />

    
    <glyph glyph-name="in" unicode="&#58897;" d="M351.3 65.4h-136.5v455.1h136.5v-455.1zM851.9 65.4h-136.5v243.2c0 63.4-22.6 94.9-67.3 94.9-35.5 0-57.9-17.6-69.2-53 0-57.4 0-285 0-285h-136.6c0 0 1.8 409.6 0 455.1h107.8l8.3-91h2.8c28 45.5 72.7 76.4 134.1 76.4 46.7 0 84.4-13 113.2-45.6 29-32.6 43.4-76.4 43.4-137.9v-257.1zM353.6 634.3c0-37.7-31.6-68.3-70.6-68.3s-70.6 30.5-70.6 68.3c0 37.7 31.6 68.3 70.6 68.3 38.9 0 70.6-30.6 70.6-68.3z"  horiz-adv-x="1024" />

    
    <glyph glyph-name="yuandian" unicode="&#58948;" d="M512 384m-256 0a4 4 0 1 0 512 0 4 4 0 1 0-512 0Z"  horiz-adv-x="1024" />

    
    <glyph glyph-name="visa" unicode="&#58971;" d="M0 128.192v-64a64 64 0 0 1 64-64h896a64 64 0 0 1 64 64v64H0zM960 32.192H64a64 64 0 0 0-64 64v-32a64 64 0 0 1 64-64h896a64 64 0 0 1 64 64v32a64 64 0 0 0-64-64zM1024 640.192v64a64 64 0 0 1-64 64H64a64 64 0 0 1-64-64v-64h1024zM0 640.192h1024v-512H0zM330.592 510.976l-96.928-191.648H232.96l-16.832 191.648H160l29.344-255.328h63.264l136.256 255.328zM364.768 255.648h56.192l54.08 255.552h-56.576zM659.168 383.2a72 72 0 0 1-20.864 12.896 202.464 202.464 0 0 1-26.496 8.768l-16.192 3.616a113.696 113.696 0 0 0-19.456 6.208c-6.272 2.624-11.712 5.952-16.192 9.984s-6.72 8.992-6.72 14.976a25.92 25.92 0 0 0 3.776 14.464 29.76 29.76 0 0 0 9.984 9.472c4.16 2.432 8.768 4.128 13.984 5.184a80 80 0 0 0 32.928-0.352c5.504-1.28 10.24-3.392 14.272-6.4a29.312 29.312 0 0 0 9.28-11.52c2.208-4.672 3.168-10.464 2.944-17.376h51.328c0 14.24-2.432 26.336-7.392 36.352a68.96 68.96 0 0 1-19.968 24.64 80.928 80.928 0 0 1-29.28 13.952 141.792 141.792 0 0 1-35.616 4.32c-11.968 0-23.744-1.44-35.328-4.32a98.88 98.88 0 0 1-31.2-13.44 71.424 71.424 0 0 1-22.368-23.584c-5.76-9.632-8.64-21.344-8.64-35.136 0-10.56 1.792-19.52 5.344-26.848 3.552-7.36 8.288-13.568 14.08-18.592 5.888-5.088 12.512-9.216 19.84-12.448 7.328-3.232 14.912-5.984 22.72-8.256 7.552-2.272 15.104-4.512 22.56-6.528 7.456-2.08 14.112-4.512 20-7.264 5.856-2.752 10.592-6.016 14.272-9.824a20.32 20.32 0 0 0 5.504-14.656 28.192 28.192 0 0 0-4.32-15.84c-2.88-4.352-6.528-7.904-11.008-10.688-4.48-2.752-9.504-4.8-15.008-6.176s-11.008-2.048-16.544-2.048a98.24 98.24 0 0 0-21.696 2.24 47.136 47.136 0 0 0-17.248 7.392 32.608 32.608 0 0 0-11.008 13.952c-2.528 5.888-3.552 13.152-3.104 21.888h-51.328c0-30.08 8.448-52.128 25.312-66.112s42.528-20.992 76.992-20.992c11.712 0 23.52 1.408 35.456 4.288s22.656 7.488 32.224 13.984c9.536 6.4 17.344 14.784 23.392 25.12 6.08 10.336 9.152 22.848 9.152 37.568a71.68 71.68 0 0 1-4.832 27.872 53.92 53.92 0 0 1-13.536 19.264zM885.12 512.352h-58.016l-151.712-257.28h59.424l32.448 57.312h96.256l8.288-57.312H928l-42.88 257.28z m-95.488-157.824l55.456 102.336h0.736l12.608-102.336h-68.8zM96 512.192s131.296-32 131.296-128c-6.784 78.496-11.168 128-11.168 128H96z"  horiz-adv-x="1024" />

    
    <glyph glyph-name="xinfeng8" unicode="&#58900;" d="M583.53664 708.82304h126.04928a14.0032 14.0032 0 1 1 0 28.0064h-126.04928a13.99808 13.99808 0 0 1-14.0032-14.00832 13.99808 13.99808 0 0 1 14.0032-13.99808z m-238.08-112.04096h364.12928a14.0032 14.0032 0 1 1 0 28.0064H345.4464a14.0032 14.0032 0 1 1 0-28.0064z m378.13248-98.03264a13.99808 13.99808 0 0 1-14.0032 14.0032H345.4464a14.0032 14.0032 0 1 1 0-28.0064h364.1344a14.0032 14.0032 0 0 1 14.0032 14.0032z m226.11968 6.33344l-114.07872 47.8208v237.9264c0 32.07168-26.09664 58.04544-58.1632 58.04544H277.57056c-32.07168 0-58.1632-25.97376-58.1632-58.04544v-237.9264L115.0208 509.1328A58.04544 58.04544 0 0 1 79.36 455.49568v-444.6464c0-32.0768 26.09664-58.29632 58.1632-58.29632h779.99104c32.07168 0 58.1632 26.2144 58.1632 58.29632V466.00704a42.28096 42.28096 0 0 1-25.96864 39.07584z m-114.07872 17.44384l95.72352-40.13568-95.72352-60.01152v100.1472zM247.41888 790.83008c0 16.62976 13.52704 30.03392 30.1568 30.03392h499.88608c16.63488 0 30.1568-13.40416 30.1568-30.03392v-386.01216l-264.08448-165.55008a30.32064 30.32064 0 0 0-32.03072 0L247.41888 404.81792V790.83008zM125.85984 483.3024l93.54752 39.2192v-100.1472l-95.39584 59.8016c0.64512 0.33792 1.16736 0.83968 1.84832 1.1264z m821.8112-472.45312c0-16.64-13.52704-30.27968-30.1568-30.27968H137.5232c-16.62976 0-30.1568 13.6448-30.1568 30.27968V455.49568c0 1.28 0.39424 2.4576 0.54784 3.72224l388.70528-243.68128a58.1888 58.1888 0 0 1 30.89408-8.82176c10.752 0 21.51424 2.944 30.89408 8.82176l389.25824 244.0192v-448.70656z"  horiz-adv-x="1024" />

    
    <glyph glyph-name="xiala" unicode="&#58893;" d="M884.527 505.133l-352.564-297.834c-19.025-16.080-47.075-15.38-65.275 1.63l-323.859 302.589c-19.83 18.53-20.89 49.635-2.355 69.47 18.53 19.835 49.635 20.89 69.47 2.36l291.943-272.769 319.2 269.649c20.74 17.52 51.75 14.91 69.267-5.83 7.797-9.23 11.607-20.49 11.605-31.69 0-13.97-5.926-27.85-17.432-37.575z"  horiz-adv-x="1024" />

    
    <glyph glyph-name="shangla2" unicode="&#58968;" d="M225.389 557.479l-30.173-30.176 316.784-316.784 316.784 316.781-30.171 30.171-286.611-286.611z"  horiz-adv-x="1024" />

    
    <glyph glyph-name="xiala2" unicode="&#58630;" d="M822.573 575.997c-16.137 15.402-41.659 14.784-57.085-1.327l-253.389-265.453-253.389 265.453c-15.402 16.111-40.922 16.742-57.085 1.327-16.111-15.389-16.716-40.948-1.314-57.072l282.589-296.045c7.622-7.978 18.162-12.497 29.2-12.497s21.578 4.521 29.199 12.497l282.59 296.045c15.401 16.123 14.798 41.684-1.314 57.072z"  horiz-adv-x="1024" />

    
    <glyph glyph-name="Ankerwebicon-" unicode="&#59017;" d="M703.886132 736.567319h84.839839V863.588166h-108.425814v-0.533312c-142.351269-4.981693-171.587889-84.439084-174.118812-167.913274h-0.292859v-88.233926h-84.836757v-127.036262h84.836757v-607.871392h152.212925V479.871392h109.054691l21.569869 127.036262H658.101411v78.856258c0.003083 28.068266 18.853983 50.803407 45.784721 50.803407z"  horiz-adv-x="1072" />

    
    <glyph glyph-name="slideUp" unicode="&#58956;" d="M512.475326 480.293113L195.172633 161.930275c-32.762171-33.020044-78.971609-49.755194-111.731734-16.735149-32.761148 33.009811-19.603477 81.132832 13.157671 114.145713l355.907943 358.673939c32.761148 33.016974 85.875856 33.016974 118.63905 0l355.90078-358.673939c32.763195-33.012881 46.189995-81.824587 13.428847-114.835422-33.650401-27.316136-77.156264-14.922874-109.919459 18.09717L512.475326 480.293113z"  horiz-adv-x="1024" />

    
    <glyph glyph-name="google1" unicode="&#59266;" d="M512 446.857143h414.285714q6.857143-38.285714 6.857143-73.142857 0-124-52-221.428572T732.857143 0 512-54.857143q-89.714286 0-170.857143 34.571429T201.142857 73.142857t-93.428571 140T73.142857 384t34.571429 170.857143T201.142857 694.857143t140 93.428571T512 822.857143q171.428571 0 294.285714-114.857143l-119.428571-114.857143q-70.285714 68-174.857143 68-73.714286 0-136.285714-37.142857T276.571429 523.142857 240 384t36.571429-139.142857T375.714286 144t136.285714-37.142857q49.714286 0 91.428571 13.714286t68.571429 34.285714 46.857143 46.857143 29.428571 49.714285 12.857143 44.571429H512V446.857143z"  horiz-adv-x="1024" />

    
    <glyph glyph-name="shoppingcart1" unicode="&#58885;" d="M343.610112 108.71808a96.29696 96.29696 0 0 0 37.376-7.32672 92.38016 92.38016 0 0 0 30.6176-20.40832 100.64896 100.64896 0 0 0 20.7616-30.8736 95.09888 95.09888 0 0 0 0-75.37152A98.65728 98.65728 0 0 0 380.986112-77.0816a90.92096 90.92096 0 0 0-37.376-7.84384 93.43488 93.43488 0 0 0-38.4 7.84384 98.65728 98.65728 0 0 0-51.3792 51.81952 95.09888 95.09888 0 0 0 0 75.37152 100.73088 100.73088 0 0 0 20.7616 30.8736 92.38016 92.38016 0 0 0 30.6176 20.39296 98.9952 98.9952 0 0 0 38.4 7.34208z m431.81056-2.08896a100.30592 100.30592 0 0 0 37.888-7.33184 91.53024 91.53024 0 0 0 31.13472-20.40832 100.64384 100.64384 0 0 0 20.7616-30.8736 95.12448 95.12448 0 0 0 0-75.3664 100.48512 100.48512 0 0 0-20.7616-30.87872 98.18112 98.18112 0 0 0-31.13472-20.94592 94.75584 94.75584 0 0 0-37.888-7.84384 91.07456 91.07456 0 0 0-37.376 7.84384 98.60096 98.60096 0 0 0-51.39456 51.82464 95.06816 95.06816 0 0 0 0 75.3664 100.62848 100.62848 0 0 0 20.75648 30.8736 92.71296 92.71296 0 0 0 30.62272 20.40832 96.37888 96.37888 0 0 0 37.38112 7.33184zM949.818112 701.184a105.22624 105.22624 0 0 0 45.15328-7.84384 51.58912 51.58912 0 0 0 22.84032-19.37408 44.21632 44.21632 0 0 0 6.2208-24.576 82.47808 82.47808 0 0 0-3.63008-22.49728q-3.11808-9.43104-13.4912-38.7328T984.572672 523.776q-11.93472-35.06176-23.87968-69.632t-19.2-54.43584q-13.48608-41.86624-33.73568-58.09664a77.94176 77.94176 0 0 0-50.33984-16.2304H312.460032l14.53056-94.208h524.19584q49.82272 0 49.82272-42.92608a64.88064 64.88064 0 0 0-9.856-36.11136q-9.86624-15.17568-38.912-15.1808H308.307712a60.98432 60.98432 0 0 0-34.77504 9.4208 79.22688 79.22688 0 0 0-23.35232 24.60672 150.23616 150.23616 0 0 0-15.0528 32.96256 304.36864 304.36864 0 0 0-8.82176 33.5104q-1.024 6.25664-5.7088 30.35136t-11.4176 60.17536l-15.0528 80.6144q-8.30464 44.4928-16.60928 89.51808-19.72224 105.728-44.63616 235.52H55.031552a41.7536 41.7536 0 0 0-25.94816 7.8592A68.29568 68.29568 0 0 0 11.956992 760.32 72.97024 72.97024 0 0 0 2.618112 783.872a114.52416 114.52416 0 0 0-2.59584 23.04 46.08 46.08 0 0 0 14.01344 34.54464A52.09088 52.09088 0 0 0 51.918592 855.04h104.83712a74.24 74.24 0 0 0 33.21344-6.27712 56.40192 56.40192 0 0 0 19.72736-15.69792 60.928 60.928 0 0 0 10.37824-19.89632c2.07872-6.95808 3.80416-12.9024 5.19168-17.78176a236.84096 236.84096 0 0 0 4.15232-23.552q2.0736-15.16544 4.15232-30.88384 3.11296-18.83136 6.23104-39.76704H949.818112z"  horiz-adv-x="1024" />

    
    <glyph glyph-name="xinxinicon" unicode="&#58979;" d="M1332.744 327.695c0-199.895-162.545-362.44-362.44-362.44s-362.44 162.545-362.44 362.44c0 196.849 157.736 357.15 353.463 361.959l-0.16-96.341 119.424 119.264-119.103 119.424-0.16-97.142c-220.574-4.809-398.668-185.468-398.668-407.163 0-224.741 182.903-407.644 407.644-407.644s407.644 182.903 407.644 407.644h-45.205zM772.814 243.377l-34.465-33.503v-27.091h207.75v36.709h-145.713v0.962l25.488 24.045c68.769 66.044 112.371 114.615 112.371 174.728 0 46.647-29.656 94.577-99.707 94.577-37.029 0-69.731-14.427-91.692-32.862l13.946-31.098c15.068 12.503 39.594 27.572 69.090 27.572 48.571 0 64.12-30.617 64.12-63.639 0-49.052-37.991-91.211-121.187-170.399zM980.404 272.071h151.163v-89.287h41.678v89.287h45.525v33.984h-45.525v202.299h-47.609l-145.232-207.75v-28.534zM1024.967 307.017l79.509 110.768c9.137 14.908 17.152 29.014 27.091 48.090h1.603c-0.962-17.152-1.603-34.144-1.603-51.136v-108.684h-106.6v0.962z"  horiz-adv-x="1824" />

    
    <glyph glyph-name="tuite" unicode="&#59013;" d="M1014.782 620.586l-86.618-17.67c51.733 39.847 62.43 120.689 62.43 120.689l-104.3-63.211C849.699 740.627 768.838 796.426 674.896 796.426c-128.286 0-232.287-104-232.287-232.287 0-18.284 2.181-36.048 6.174-53.115C319.03 560.713 116.664 638.512 85.89 649.9c-15.899-56.613-12.36-118.978 14.624-176.377 11.066-23.54 25.297-44.575 41.935-62.865-38.61 1.553-67.494 2.676-77.393 2.963 2.67-51.793 23.211-102.911 61.94-143.273a223.854 223.854 0 0 1 46.536-37.073c-39.235-10.13-71.655-18.525-80.123-20.816 10.584-29.468 31.376-55.421 60.81-71.987 22.036-12.402 58.543-21.746 98.584-26.167-54.128-17.074-111.69-26.424-171.46-26.424-23.236 0-46.131 1.424-68.634 4.13 92.16-64.134 204.142-101.767 324.93-101.767 300.521 0 546.57 232.791 567.928 527.874 72.185 33.71 109.215 102.468 109.215 102.468z"  horiz-adv-x="1024" />

    
    <glyph glyph-name="cc-discover" unicode="&#58938;" d="M139.1 470.45c0-15.55-5.35-28.4-16-38.45-8.6-7.95-21.8-11.9-39.55-11.9H76V520.85h7.55c18.05 0 31.25-4.1 39.55-12.35 10.7-9.5 16-22.15 16-38.05z m789.35 29.8c0-15.9-9.5-23.8-28.45-23.8h-8.45v46.25h8.9c18.65-0.05 28-7.5 28-22.45zM168.9 470.45c0 22.6-7.4 41-22.2 55.2-14.8 14.2-33.95 21.3-57.35 21.3H47.1v-152.5h42.2c21.95 0 39.55 5.8 52.9 17.4 17.8 15.55 26.7 35.1 26.7 58.6z m13.3-76h28.9v152.5h-28.9v-152.5z m142.25 46.25c0 12.2-3.05 21.7-9.1 28.4-6.05 6.7-17.25 13.15-33.55 19.25-8.6 3.05-14.45 5.95-17.55 8.7-3.1 2.75-4.65 6.25-4.65 10.55 0 4.9 2 8.95 6 12.15s9.1 4.8 15.35 4.8c8.6 0 16.45-4.1 23.55-12.35l15.1 20.15c-12.15 11.3-26.65 16.95-43.55 16.95-13.05 0-24-4.2-32.9-12.6-8.9-8.4-13.35-18.7-13.35-30.9 0-10.7 2.65-19.15 8-25.4s14.8-11.85 28.45-16.7c10.95-3.95 17.65-6.85 20-8.7 5.65-3.65 8.45-8.85 8.45-15.55 0-6.1-2.05-11.2-6.2-15.35-4.15-4.1-9.5-6.2-16-6.2-14.2 0-24.75 6.7-31.55 20.15l-18.65-18.3c13.05-19.55 30.05-29.3 51.1-29.3 15.1 0 27.4 4.65 36.9 13.95 9.4 9.2 14.15 21.35 14.15 36.3zM448 399.45v35.25c-10.95-11.3-22.5-16.95-34.65-16.95-14.5 0-26.45 4.95-35.8 14.9-9.35 9.9-14 22.5-14 37.8 0 14.65 4.65 27.1 14 37.35s20.8 15.35 34.45 15.35c12.75 0 24.75-5.8 36-17.4V541c-11.85 6.1-23.7 9.15-35.55 9.15-21.95 0-40.5-7.7-55.8-23.15s-22.9-34.25-22.9-56.55 7.55-41.15 22.65-56.55c15.1-15.4 33.65-23.15 55.55-23.15 12.5 0 24.5 2.9 36.05 8.7z m547.55-276.6v241.35c-19.25-12.2-40.65-25.05-64.2-38.45-23.55-13.45-58.75-31.3-105.55-53.6s-95.65-43.3-146.45-62.95c-50.8-19.7-112.65-40.25-185.55-61.6s-147.55-39.4-224-54.05h697.35c7.7 0 14.35 2.9 20 8.7 5.6 5.8 8.4 12.65 8.4 20.6z m-378.2 346.7c0 22.9-7.85 42.45-23.55 58.6-15.7 16.2-34.65 24.25-56.9 24.25-22.2 0-41.2-8.1-56.9-24.25-15.7-16.2-23.55-35.7-23.55-58.6s7.85-42.45 23.55-58.6c15.7-16.2 34.65-24.25 56.9-24.25 22.2 0 41.2 8.1 56.9 24.25 15.7 16.15 23.55 35.7 23.55 58.6z m67.55-79.25l64 156.65h-31.55l-40-102.6-39.55 102.6h-31.55l63.1-156.65h15.55z m76.9 4.15h81.8v25.65h-52.9v41.2h51.1v25.65h-51.1v33.9h52.9v26.1h-81.8v-152.5z m173.75 0h35.55l-46.65 64.1c22.5 4.9 33.8 19.25 33.8 43.05 0 14.35-4.6 25.5-13.8 33.45-9.2 7.95-22.05 11.9-38.65 11.9h-43.1v-152.5h28.9V455.35h4l39.95-60.9zM1024 706.3v-580.7c0-17.1-5.7-31.6-17.1-43.5-11.4-11.9-25.25-17.85-41.55-17.85H58.65c-16.3 0-30.15 5.95-41.55 17.85S0 108.5 0 125.6V706.3c0 17.1 5.7 31.6 17.1 43.5s25.25 17.85 41.55 17.85h906.65c16.3 0 30.15-5.95 41.55-17.85 11.45-11.9 17.15-26.4 17.15-43.5z"  horiz-adv-x="1024" />

    
    <glyph glyph-name="cc-jcb" unicode="&#58939;" d="M867.1 369.25c0-7.95-2.3-14.75-6.9-20.4s-10.3-9.25-17.1-10.75c-2.35-0.6-5.05-0.9-8-0.9h-68V401.3h68c2.95 0 5.65-0.3 8-0.9 6.8-1.55 12.5-5.1 17.1-10.75 4.6-5.65 6.9-12.45 6.9-20.4z m-8 97.55c0-7.65-2.2-14.05-6.65-19.25s-10.05-8.4-16.9-9.6c-0.9-0.3-3.1-0.45-6.65-0.45h-61.8V496.55h61.8c0.9 0 2.15-0.1 3.8-0.25s2.6-0.25 2.9-0.25c6.8-1.2 12.45-4.5 16.9-9.85s6.6-11.75 6.6-19.4zM323.55 391.7V532.75H222.2v-141.05c0-17.7-5.65-32.15-16.9-43.3-11.25-11.15-26.8-16.7-46.65-16.7-32 0-65.95 9-101.8 27v-51.3c15.7-4.6 33.65-8.1 53.8-10.55 20.15-2.45 36.3-3.8 48.45-4.1l18.65-0.45c97.2 0 145.8 33.15 145.8 99.4z m317.35-84.3v51.75c-29.35-15.9-58.95-24.9-88.9-27-32-2.45-57.05 3.8-75.1 18.8-18.05 14.95-27.1 36.65-27.1 65.05s9.05 50.05 27.1 65.05 43.1 21.2 75.1 18.8c29.95-2.15 59.55-11 88.9-26.55V524.5c-14.2 3.65-29.05 6.65-44.45 8.95-15.4 2.3-27.25 3.75-35.55 4.35l-12.45 0.9c-37.65 1.85-70-0.3-97.1-6.4-27.1-6.1-47.95-15.25-62.45-27.5-14.5-12.2-25.05-25.65-31.55-40.3-6.5-14.65-9.8-30.85-9.8-48.55s3.25-33.9 9.8-48.55 17.05-28.1 31.55-40.3c14.5-12.2 35.35-21.35 62.45-27.5s59.5-8.25 97.1-6.4c29.9 1.25 60.75 6 92.45 14.2z m326.2 52.7c0 16.5-6.35 30-19.1 40.55s-28.9 16.55-48.45 18.1v1.35c16.9 2.45 30.05 8.8 39.55 19s14.2 22.35 14.2 36.4c0 16.8-6.05 30.25-18.2 40.3-12.15 10.1-28 15.55-47.55 16.5-0.9 0-2.65 0.1-5.35 0.25s-4.75 0.25-6.2 0.25h-202.2v-233.55H892c21.95 0 39.95 5.55 54 16.7 14.05 11.1 21.1 25.8 21.1 44.15zM1024 709.05v-586.2c0-15.9-5.65-29.6-16.9-41.2-11.25-11.6-24.6-17.4-40-17.4H56.9c-15.4 0-28.75 5.8-40 17.4C5.65 93.25 0 107 0 122.85V709.05c0 15.9 5.65 29.6 16.9 41.2 11.25 11.6 24.6 17.4 40 17.4h910.2c15.4 0 28.75-5.8 40-17.4 11.25-11.55 16.9-25.3 16.9-41.2z"  horiz-adv-x="1024" />

    
    <glyph glyph-name="cc-stripe" unicode="&#58940;" d="M703.25 413.15c0-21.05-3-37.25-9-48.55-5.4-10.7-12.85-16.05-22.25-16.05-6.55 0-12.4 1.35-17.55 4.1V455.25c8.3 9.15 16.4 13.75 24.4 13.75 16.3 0 24.4-18.6 24.4-55.85z m187.55 16.5h-47.1c1.7 29.9 9.7 44.9 23.95 44.9 14.55-0.05 22.25-15 23.15-44.9zM223.35 367.8c0 18-4.7 32-14.15 41.9-9.4 9.9-23.85 18.7-43.25 26.35-10.25 3.95-17.7 7.65-22.25 11-4.55 3.35-6.85 7.2-6.85 11.45 0 7.95 5.4 11.9 16.25 11.9 16.55 0 34.25-5.05 53.1-15.1l7.7 51.3c-19.1 9.75-40.4 14.65-63.8 14.65-22 0-39.55-5.8-52.65-17.4-13.7-11.9-20.55-28.55-20.55-49.9 0-17.7 4.65-31.5 13.9-41.45s23.5-18.55 42.6-25.9c11.15-4.25 18.9-8.15 23.35-11.7 4.4-3.5 6.65-7.7 6.65-12.6 0-9.45-6.85-14.2-20.55-14.2-8.3 0-18.25 1.9-29.95 5.7-11.7 3.8-22 8.45-30.8 13.95L74.4 316c20.55-12.5 44.5-18.8 71.9-18.8 23.1 0 41.55 5.65 55.25 16.95 14.5 12.6 21.8 30.45 21.8 53.65z m126.3 98.45l8.15 50.85h-41.1V578.95l-55.25-9.6-7.7-52.2-19.7-3.65-7.3-47.15h26.55v-100.3c0-25.65 6.3-43.95 18.85-54.95 10.85-9.15 26.7-13.75 47.5-13.75 9.15 0 20.4 1.7 33.8 5.05v54.05c-9.15-2.15-15.4-3.2-18.85-3.2-12 0-18 7.65-18 22.9V466.25h33.05z m135.25-11.45V518.5c-4.3 0.9-8.3 1.35-12 1.35-9.15 0-17.05-2.45-23.75-7.35-6.7-4.9-11.5-11.9-14.35-21.05l-4.3 25.65H374.45v-215.7h64.2V441.55c7.4 9.45 19.1 14.2 35.1 14.2 4.6 0 8.3-0.3 11.15-0.95z m15.85-153.4H565V517.1h-64.2v-215.7z m266.3 114.05c0 37.25-6.4 64.6-19.25 82-11.4 15.9-27.25 23.8-47.5 23.8-18.25 0-34.95-8.55-50.1-25.65l-3.4 21.55h-56.5v-295.4l64.2 11.45v69.15c10.25-3.35 20-5.05 29.1-5.05 23.7 0 42.8 8.55 57.35 25.65 17.4 19.8 26.1 50.65 26.1 92.5z m-200.35 159.35c0 10.1-3.3 18.6-9.85 25.65s-14.55 10.55-23.95 10.55c-9.4 0-17.4-3.5-23.95-10.55-6.55-7-9.85-15.55-9.85-25.65s3.3-18.7 9.85-25.9c6.55-7.2 14.55-10.75 23.95-10.75 9.4 0 17.4 3.6 23.95 10.75s9.85 15.85 9.85 25.9z m384.45-163.5c0 34.5-6.85 61.35-20.55 80.6-14.25 19.55-34.8 29.3-61.65 29.3-27.4 0-49-10.1-64.85-30.25s-23.75-47.65-23.75-82.45c0-39.1 9-67.8 26.95-86.1 15.7-16.8 38.65-25.2 68.95-25.2 28.85 0 51.65 6.1 68.5 18.3l-6.85 47.15c-16.25-9.45-34.55-14.2-54.8-14.2-12.25 0-21.25 2.9-26.95 8.7-6.55 5.8-10.55 15.9-12 30.25h106.15c0.55 4.35 0.85 12.3 0.85 23.9z m54.8 298.15v-586.2c0-15.9-5.4-29.6-16.25-41.2s-23.7-17.4-38.55-17.4H74.35c-14.85 0-27.7 5.8-38.55 17.4s-16.25 25.35-16.25 41.2V709.45c0 15.9 5.4 29.6 16.25 41.2 10.85 11.6 23.7 17.4 38.55 17.4h876.8c14.85 0 27.7-5.8 38.55-17.4 10.8-11.6 16.25-25.3 16.25-41.2z"  horiz-adv-x="1024" />

    
    <glyph glyph-name="cc-mastercard" unicode="&#58941;" d="M497.35 670.55C459.4 696.5 417.8 709.5 372.45 709.5c-30.5 0-59.8-6.2-87.8-18.55-28-12.35-52.05-28.95-72.2-49.7s-36.2-45.5-48.2-74.2-18-58.75-18-90.2c0-31.75 6-62 18-90.7 12-28.7 28.05-53.45 48.2-74.2s44.15-37.35 72-49.7c27.85-12.35 57.2-18.55 88-18.55 45.35 0 86.95 13 124.9 38.95-38.8 32.65-65.2 73.2-79.1 121.6-13.95 48.4-13.85 96.7 0.2 144.95 14.05 48.2 40.35 88.65 78.9 121.35z m14.65-11c-37.35-30.25-62.8-68.3-76.45-114.25s-13.7-91.85-0.2-137.6 39.05-83.8 76.65-114.05c37.65 30.25 63.2 68.25 76.65 114.05s13.4 91.65-0.2 137.6c-13.65 45.9-39.1 84-76.45 114.25z m14.65 11c38.5-32.65 64.8-73.2 78.9-121.6 14.05-48.4 14.15-96.8 0.2-145.2-13.95-48.4-40.3-88.75-79.1-121.15 37.95-25.95 79.55-38.95 124.9-38.95 30.8 0 60.15 6.2 88 18.55 27.85 12.35 51.85 28.95 72 49.7 20.15 20.75 36.2 45.5 48.2 74.2 12 28.7 18 58.95 18 90.7 0 31.45-6 61.5-18 90.2s-28.05 53.45-48.2 74.2c-20.15 20.75-44.2 37.35-72.2 49.7-28 12.35-57.25 18.55-87.8 18.55-45.35 0-86.95-12.95-124.9-38.9z m329.35-330.7h3.1v1.35h-7.55v-1.35h3.1v-7.8h1.35v7.8z m12.9-7.75h1.8v9.15h-2.2l-2.65-5.95-2.65 5.95h-2.2v-9.15h1.35v6.85l2.65-5.95h1.8l2.2 5.95v-6.85z m-3.55-201.55v-0.9h-2.2v1.35h2.2v-0.45z m0-4.1h1.35l-1.8 2.3h0.9l0.45 0.45c0.3 0.3 0.45 0.75 0.45 1.35s-0.15 1.05-0.45 1.35l-0.45 0.45h-4v-5.95h1.35v2.3h0.45l1.75-2.25z m-560.9 31.15c0 5.8 1.65 10.55 4.9 14.2 3.25 3.65 7.7 5.5 13.35 5.5 5.35 0 9.65-1.9 12.9-5.7 3.25-3.8 4.9-8.45 4.9-13.95 0-5.8-1.65-10.55-4.9-14.2-3.25-3.65-7.55-5.5-12.9-5.5-5.65 0-10.05 1.85-13.35 5.5s-4.9 8.35-4.9 14.15z m210.2 20.15c8.9 0 14.05-4.9 15.55-14.65h-31.1c1.5 9.75 6.7 14.65 15.55 14.65z m158.25-20.15c0 5.8 1.65 10.55 4.9 14.2 3.25 3.65 7.55 5.5 12.9 5.5 5.35 0 9.7-1.9 13.1-5.7 3.4-3.8 5.1-8.45 5.1-13.95 0-5.8-1.65-10.55-4.9-14.2s-7.7-5.5-13.35-5.5c-5.35 0-9.65 1.85-12.9 5.5s-4.85 8.35-4.85 14.15z m120.9 0c0 5.5 1.7 10.15 5.1 13.95 3.4 3.8 7.8 5.7 13.1 5.7s9.7-1.9 13.1-5.7c3.4-3.8 5.1-8.45 5.1-13.95 0-5.8-1.7-10.55-5.1-14.2-3.4-3.65-7.8-5.5-13.1-5.5s-9.7 1.9-13.1 5.7c-3.4 3.85-5.1 8.5-5.1 14z m70.2-33c-0.6 0-1.2 0.15-1.8 0.45-0.3 0-0.75 0.3-1.35 0.9-0.6 0.6-0.9 1.05-0.9 1.35-0.3 0.6-0.45 1.2-0.45 1.85 0 0.9 0.15 1.55 0.45 1.85 0 0.6 0.3 1.2 0.9 1.85l0.45 0.45c0.6 0 0.9 0.15 0.9 0.45 0.6 0.3 1.2 0.45 1.8 0.45 0.9 0 1.5-0.15 1.8-0.45l1.8-0.9 0.9-1.85v-0.45c0.3-0.6 0.45-1.05 0.45-1.35l-0.45-0.45v-1.35l-0.45-0.45-0.45-0.9c-0.6-0.6-1.2-0.9-1.8-0.9-0.3-0.4-0.9-0.55-1.8-0.55z m-597.8 1.85h13.35v38.95c0 7.35-2.15 13.2-6.45 17.65-4.3 4.45-10.15 6.8-17.55 7.1-9.5 0-16.45-3.65-20.9-11-4.15 7.35-10.8 11-20 11-7.1 0-12.9-3.05-17.35-9.15v7.35H184V126.5h13.35v34.35c0 11 4.9 16.5 14.65 16.5 8.9 0 13.35-5.5 13.35-16.5v-34.35h12.9v34.35c0 11 4.9 16.5 14.65 16.5 8.9 0 13.35-5.5 13.35-16.5v-34.4z m73.8 0h12.9v61.85H340v-7.35c-5.05 6.1-11.4 9.15-19.1 9.15-8.6 0-15.7-3.05-21.35-9.15s-8.45-13.9-8.45-23.35 2.8-17.25 8.45-23.35 12.75-9.15 21.35-9.15c8.3 0 14.65 3.05 19.1 9.15v-7.8z m79.1 18.75c0 10.4-6.95 16.5-20.9 18.3l-6.2 0.9c-6.8 1.2-10.2 3.35-10.2 6.4 0 4.6 3.7 6.85 11.1 6.85 6.8 0 13.2-1.7 19.1-5.05l5.35 11c-6.5 4.25-14.65 6.4-24.45 6.4-7.7 0-13.8-1.85-18.2-5.5-4.45-3.65-6.65-8.55-6.65-14.65 0-10.1 6.95-16.05 20.9-17.85l5.8-0.9c7.1-1.2 10.65-3.35 10.65-6.4 0-5.2-4.6-7.8-13.8-7.8-7.4 0-14.05 2.15-20 6.4l-5.8-10.55c7.4-5.2 16-7.8 25.8-7.8 8.6 0 15.35 1.85 20.2 5.5 4.85 3.8 7.3 8.65 7.3 14.75z m57.8-15.55l-3.55 11.45c-3.85-2.15-7.7-3.2-11.55-3.2-5.65 0-8.45 3.35-8.45 10.1v27.95h21.35v12.35h-21.35v18.8H440v-18.8h-12.45v-12.35H440v-27.95c0-15.25 6.95-22.9 20.9-22.9 6.2-0.05 11.55 1.5 16 4.55z m38.2 60.45c-8.6 0-15.7-3.05-21.35-9.15s-8.45-13.9-8.45-23.35c0-9.75 2.9-17.65 8.65-23.6 5.8-5.95 13.1-8.95 22-8.95 9.8 0 17.95 2.9 24.45 8.7l-6.2 10.1c-5.35-4.6-11.1-6.85-17.35-6.85-10.05 0-16.15 5.05-18.2 15.1h44.9v5.5c0 9.75-2.65 17.65-8 23.6-5.35 5.95-12.15 8.9-20.45 8.9z m70.7 0c-6.8 0-12-3.05-15.55-9.15v7.35h-13.35v-61.85h13.35v34.8c0 10.7 4.3 16.05 12.9 16.05 2.95 0 5.65-0.6 8-1.85l4 12.8c-2.7 1.25-5.8 1.85-9.35 1.85z m13.3-32.5c0-9.45 2.9-17.25 8.65-23.35s13.55-9.15 23.35-9.15c8.6 0 15.7 2.45 21.35 7.35l-6.2 11c-5.35-3.95-10.5-5.8-15.55-5.5-5.35 0-9.7 1.85-13.1 5.5-3.4 3.65-5.1 8.4-5.1 14.2s1.7 10.55 5.1 14.2c3.4 3.65 7.8 5.5 13.1 5.5 5.65 0 10.8-1.85 15.55-5.5l6.2 11c-5.95 4.9-13.05 7.35-21.35 7.35-9.8 0-17.55-3.05-23.35-9.15s-8.65-14-8.65-23.45z m108.9-31.15h13.35v61.85H708v-7.35c-4.45 6.1-10.65 9.15-18.65 9.15-8.6 0-15.8-3.05-21.55-9.15s-8.65-13.9-8.65-23.35 2.9-17.25 8.65-23.35 12.95-9.15 21.55-9.15c8.3 0 14.5 3.05 18.65 9.15v-7.8z m59.1 63.65c-6.8 0-12-3.05-15.55-9.15v7.35h-12.9v-61.85h12.9v34.8c0 10.7 4.3 16.05 12.9 16.05 2.95 0 5.65-0.6 8-1.85l4 12.8c-2.4 1.25-5.5 1.85-9.35 1.85z m62.25-63.65h12.9v87h-12.9v-32.5c-4.45 6.1-10.8 9.15-19.1 9.15s-15.35-3.15-21.1-9.4c-5.8-6.25-8.65-13.95-8.65-23.15s2.9-16.85 8.65-23.15c5.8-6.25 12.8-9.4 21.1-9.4 8.6 0 14.95 3.05 19.1 9.15v-7.7z m34.65 9.15l-0.9-0.45h-1.35c-0.6-0.3-1.2-0.75-1.8-1.35-0.9-0.3-1.35-0.9-1.35-1.85-0.3-0.6-0.45-1.55-0.45-2.75 0-0.9 0.15-1.7 0.45-2.3 0-0.6 0.45-1.2 1.35-1.85 0.6-0.6 1.2-1.05 1.8-1.35 0.6-0.3 1.35-0.45 2.2-0.45 1.2 0 2.05 0.15 2.65 0.45 0 0.3 0.3 0.6 0.9 0.9l0.9 0.45c0.3 0.3 0.75 0.9 1.35 1.85 0.3 0.6 0.45 1.35 0.45 2.3 0 1.2-0.15 2.15-0.45 2.75-0.3 0.3-0.75 0.9-1.35 1.85 0 0.3-0.3 0.6-0.9 0.9l-0.9 0.45c-0.3 0-0.75 0.1-1.35 0.25-0.5 0.15-0.95 0.2-1.25 0.2z m160 573.85v-586.2c0-15.9-5.65-29.6-16.9-41.2-11.25-11.6-24.6-17.4-40-17.4H56.9c-15.4 0-28.75 5.8-40 17.4S0 107.35 0 123.25V709.45c0 15.9 5.65 29.6 16.9 41.2 11.25 11.6 24.6 17.4 40 17.4h910.2c15.4 0 28.75-5.8 40-17.4 11.25-11.6 16.9-25.3 16.9-41.2z"  horiz-adv-x="1024" />

    
    <glyph glyph-name="yuandianxuanzekuang" unicode="&#58952;" d="M656.896 15.36c0.512 0.512 1.536 0.512 2.048 1.024h0.512c-3.584-1.536-3.584-1.536-2.56-1.024z m-308.736 0c-5.632 3.072-1.536 1.024 0 0z m-208.896 521.216c-0.512-1.536-2.048-6.144 0 0z m814.592-136.192c-1.024 24.576-4.096 49.664-9.216 74.24-17.408 87.04-62.976 168.96-126.976 230.912-64.512 62.464-148.992 105.984-238.08 119.808-26.624 4.096-53.76 7.168-80.384 6.656-24.576 0-49.152-2.56-73.216-6.656-46.08-7.68-91.136-22.528-132.608-44.032-77.824-39.936-143.872-104.96-186.368-181.248-46.08-82.944-65.024-180.224-53.248-274.432 6.144-48.64 18.944-94.72 39.936-139.264 18.432-39.936 43.52-76.8 72.704-109.568 59.904-67.072 141.824-114.688 228.864-135.168 91.136-22.016 189.44-15.872 276.48 19.456 44.032 17.92 84.48 41.984 121.344 72.192 33.792 27.648 62.976 60.928 87.04 97.792 52.736 78.336 78.336 175.104 73.728 269.312z m-64-73.728c-5.12-35.328-14.336-69.632-28.16-102.912-7.68-17.92-16.384-34.816-26.624-51.712-6.656-10.752-13.824-20.992-20.992-30.72l-1.024-1.024-0.512-0.512-1.024-1.024 0.512 0.512-9.216-10.752c-12.8-15.36-27.136-29.696-42.496-43.008-3.584-3.072-7.168-6.656-11.264-9.728-2.048-1.536-3.584-3.072-5.632-4.608l-1.024-1.024-0.512-0.512c-8.192-6.144-16.384-11.776-24.576-17.408-19.456-12.8-39.936-23.552-60.928-32.768-32.256-13.312-66.048-22.528-100.864-27.136-34.816-4.096-70.144-4.096-105.472 0-34.816 5.12-68.608 14.336-101.376 27.648-18.432 8.192-35.84 16.896-53.248 27.648-11.264 6.656-22.016 14.336-32.768 22.016-0.512 0.512-1.024 0.512-1.536 1.024-4.096 3.072-8.192 6.656-12.288 10.24-15.872 13.312-30.72 28.16-44.032 43.52-3.072 3.584-6.656 7.68-9.728 11.264-1.536 1.536-2.56 3.584-4.096 5.12 6.144-7.68 0.512-0.512-1.024 1.536-6.144 8.192-12.288 16.896-17.92 26.112-11.776 18.432-22.016 37.888-30.72 57.856-12.8 31.744-22.016 65.536-27.136 99.328-4.608 35.84-4.608 71.68 0 107.52 5.12 33.792 13.824 67.072 26.624 98.816 7.68 17.408 16.384 34.816 26.624 51.2 5.12 8.704 10.752 16.896 16.384 25.088 2.56 3.584 5.632 7.68 8.192 11.264 0.512 0.512 1.024 1.536 1.536 2.048 14.336 17.92 29.696 34.304 46.592 49.664 7.68 6.656 15.36 13.312 23.552 19.968 0.512 0.512 1.024 0.512 1.024 1.024l6.144 4.608c4.608 3.584 9.728 6.656 14.336 9.728 19.456 12.8 40.448 24.064 61.952 33.28 32.256 13.312 66.56 22.528 101.376 27.648 35.84 4.608 71.68 4.096 108.032-0.512 33.792-5.12 66.56-13.824 98.304-26.624 17.92-7.68 35.328-16.896 52.224-27.136 11.264-6.656 22.016-13.824 32.256-22.016 1.024-0.512 1.536-1.024 2.56-1.536 3.584-3.072 7.68-6.144 11.264-9.216 19.456-16.384 37.888-34.816 54.272-54.784 1.536-1.536 2.56-3.584 4.096-5.12 0.512-1.024 1.024-1.536 1.536-2.56 6.144-8.192 11.776-16.896 17.408-25.6 12.288-18.944 22.528-38.912 31.744-59.392 9.728-24.064 17.408-49.152 22.528-74.752 1.536-7.68 3.072-15.36 4.096-23.04 5.12-36.352 5.12-72.704 1.024-108.544z m-77.824-186.88c0.512 0 0.512 0 0 0 0.512 1.024 1.024 1.536 1.536 2.048 1.536 1.536 2.048 3.072-1.536-2.048z"  horiz-adv-x="1024" />

    
    <glyph glyph-name="paypal" unicode="&#58902;" d="M1123.1940353056414 405.28459070871264c-5.604846560396255 4.991491332650185-12.643168900161985 7.489318611100317-21.109415374696255 7.489318611100317-11.199979609809812 0-20.590422489680353-3.8591432198882094-28.14912545587867-11.577428980730474-7.56841647718102-7.716898698359728-11.35123731382191-17.182276220060885-11.351236634887755-28.372542318888 0-8.482898692600427 2.7240196242928505-15.142383920028806 8.173445256426927-19.97706658300012 5.45081405248493-4.84578459430486 12.557132326997817-7.263126265257599 21.338383203372363-7.263126944191753 10.89746488071978 0 20.203258928842843 3.7828208366408944 27.920157627202574 11.349849572405223 7.718286439776419 7.561477770097551 11.577428980730474 16.79650040064007 11.578816722147167 27.691189798526473-0.0013877414166927335 8.777087652124466-2.8058922942727804 15.664152287878098-8.401025343686344 20.659806844778362zM607.4523840127515 405.28459070871264c-5.604846560396255 4.991491332650185-12.641781158745289 7.489318611100317-21.113577920012176 7.489318611100317-11.20136735122651 0-20.586259265430268-3.8591432198882094-28.14634997304529-11.577428980730474-7.569804218597708-7.716898698359728-11.352625055238605-17.182276220060885-11.352625055238605-28.372542318888 0-8.482898692600427 2.6463094996288423-15.142383920028806 7.947253589518368-19.97706658300012 5.291230578906834-4.84578459430486 12.329552918672562-7.263126265257599 21.112190857529637-7.263126944191753 11.190266098827124 0 20.654255879111588 3.699559746310114 28.373930060304705 11.125044967979193 7.718286439776419 7.407445262186228 11.577428980730474 16.71740253455937 11.577428980730474 27.915994402952492 0 8.777087652124466-2.803117490373552 15.664152287878098-8.398250539787114 20.659806844778362zM1265.4550089975814 736.7809549967449H335.70821033604443C293.6239843936638 736.7809549967449 259.3857116699219 702.5426822730029 259.3857116699219 660.4584563306222v-542.5835793279111c0-42.08422594238073 34.23827272374183-76.32249866612256 76.32249866612256-76.32249866612256h929.7467986615376c42.08145045954734 0 76.32249866612256 34.23827272374183 76.32249866612256 76.32249866612256V660.4584563306222c0 42.08422594238073-34.24104820657521 76.32249866612256-76.32249866612256 76.32249866612256zM426.9857552992179 379.1795207771163c-0.907544187270105 0-3.0293091572821136 0.14709447976201773-6.355582756921649 0.44960920885205263-3.3332116277888426 0.3011269876733423-6.20848827715963 0.45377175416797405-8.627217689529061 0.45377175416797405-2.425667440518737 0-4.994266815483569-0.22619234584271905-7.7182857608422655-0.6758008757606148-2.7240196242928505-0.45238401275128126-4.995654556900263-1.4431892903521655-6.809354511089623-2.955762256868183-1.816475437022746-1.5153484493494034-2.8808276150375605-3.483081590384245-3.1791791198775172-5.903198744170367l-8.170670452527698-49.93572876881807c-0.610579744912684-5.754716522991657-3.9368533445522194-8.625829948112369-9.988533630967138-8.625829948112369H341.63361158501357c-1.816475437022746 0-3.3318238863721485 0.7535110004246236-4.539107319898903 2.27024719119072-1.2128337202593684 1.512572966516018-1.6679932158440354 3.1764036370441313-1.3613159414380789 4.995654556900263L365.24224130064243 504.48302353235584c0.6036417167633771 5.7477778159081945 3.781433095224202 8.624442206695676 9.531986393965783 8.624442206695676h72.64097887929529c18.762845800258216 0 33.97045017220079-4.01595121063292 45.62697701901198-12.028425930999218 11.64958881866187-8.024963714182379 17.480627724900838-20.96370863635093 17.480627724900838-38.819010249339044 0-26.034297835081816-7.421321997419-46.386038985103376-22.247314453124996-61.06354921963065-14.83293048385531-14.683061200194063-35.26238175854087-22.01695956196636-61.28974156547337-22.01695956196636z m242.43355957511812 59.92842562403529L650.8063390366734 320.61518657735235c-0.907544187270105-5.754716522991657-4.242143556475639-8.625829948112369-9.987145889550447-8.625830627046527h-31.3255290929228c-3.935465603135527 0-5.901810323819517 2.414566188119352-5.901810323819517 7.263126944191753 0 2.7212441414594655 0.6022539753466846 5.900423261336981 1.816475437022746 9.53059865254909-5.448038569651545-6.054455769248307-12.71255257632583-10.89607713930309-21.792154957540333-14.527640950866042-9.078213960863652-3.628787649795413-17.860852578654885-5.448038569651545-26.331262277439237-5.448038569651545-17.556950108148158 0-31.55172075983137 5.291230578906834-41.99402614496648 15.890343954786662-10.442305385135116 10.589399864897134-15.664152287878098 24.813138345256448-15.664152287878098 42.673990244977176 0 22.091894203796983 7.63918857369572 41.31544978637248 22.925891490653157 57.659566174261286 15.283927434124054 16.344116387888793 33.82335569243879 24.51756164431572 55.61551064997912 24.51756164431572 20.5807082997635 0 34.958479966968305-6.060006055980921 43.130537481978536-18.16197888739407 0.9089312497526406 9.988533630967138 3.4761428833007812 14.984188187867403 7.719673502258959 14.984188187867403h34.503320471383624c1.8136999541893604 0 3.3248858582228418-0.7590619660913944 4.537719578482211-2.270247870124877 1.2058956921100614-1.5139607079327106 1.658279704861343-3.1764036370441313 1.3599282000213861-4.992879074066877z m59.47742867376655-173.880691065453H693.9382642600688c-3.9368533445522194 0-5.901810323819517 1.964957658201456-5.901811002753676 5.903198065236209 0 2.417341670952737 12.405875301919874 20.576545754447576 37.22595167532564 54.478999312967055-0.30390247050672775 1.2017324678599834-3.857755478471517 11.802233585156502-10.668497052043678 31.77375056035817a59662.18514387683 59662.18514387683 0 0 1-19.065360529348254 55.84725328255444c-5.900423261336981 17.251659896224737-8.852022293955088 26.175841349177066-8.852022293955088 26.7864217730239 0 1.5084104212000966 0.6022539753466846 2.9502112912014127 1.816475437022746 4.310139491222799 1.2031202092766762 1.3627036828547714 2.564436150714755 2.0454432656988506 4.08117234148085 2.0454432656988506h34.05509900394827c5.139973553828894 0 8.467634215950966-2.42705518193543 9.985758148133755-7.265902427025139l19.977067261934277-68.1004838179797 48.12341655604542 70.82727892510594c2.113439200446009 3.018207904882729 4.836071083322167 4.539107319898903 8.172058193944396 4.539107319898903h34.95847928803414c1.5084104212000966 0 2.8725011665374036-0.6841273242607714 4.086723307147622-2.0454432656988506 1.2017324678599834-1.3599282000213861 1.8123122127726672-2.800342007540167 1.8123122127726672-4.310139491222799 0-1.5222871564328673-0.302514729090035-2.5769251445308328-0.9047687044367193-3.1777913784608245l-115.77012861985712-167.07549977861345c-2.124541131779552-3.0279214158654213-4.84578459430486-4.536331837065519-8.173445935361089-4.536331837065519z m213.82788688223812 113.95226544141768c-0.9019932216033342 0-3.0279214158654213 0.14709447976201773-6.355582077987491 0.44960920885205263-3.3304361449554567 0.3011269876733423-6.204325052909555 0.45377175416797405-8.623055144213138 0.45377175416797405-2.42705518193543 0-4.997042298316955-0.22619234584271905-7.719673502258959-0.6758008757606148-2.726794428192079-0.45238401275128126-4.994266815483569-1.4431892903521655-6.809354511089623-2.955762256868183-1.819250919856131-1.5153484493494034-2.878052132204175-3.483081590384245-3.1777913784608245-5.903198744170367l-8.17483367677778-52.661136134527624c-1.2128337202593684-3.935465603135527-3.632950874045492-5.900423261336981-7.263126265257599-5.900422582402825h-37.22595167532564c-1.8178631784394383 0-3.33737485203892 0.7535110004246236-4.539107319898903 2.27024719119072-1.2142214616760614 1.512572966516018-1.6679932158440354 3.1764036370441313-1.3599282000213861 4.995654556900263L880.983892593533 504.48302353235584c0.6008662339299917 5.7477778159081945 3.931302378885448 8.624442206695676 9.988533630967138 8.624442206695676h72.18581870477647c18.76562060415745 0 33.97183791361749-4.01595121063292 45.62558995652944-12.028425930999218 11.650976560078561-8.024963714182379 17.480627724900838-20.96370863635093 17.479239304549992-38.819010249339044 0-26.034297835081816-7.41715945210308-46.386038985103376-22.245926711708307-61.06354921963065-14.835705966688694-14.683061200194063-35.260994017124176-22.01695956196636-61.29251704830678-22.01695956196636z m242.4404982822016 59.92842562403529L1166.5493773920457 320.61518657735235c-0.9061564458534122-5.754716522991657-4.240755815058947-8.625829948112369-9.98298266530037-8.625830627046527h-31.328304575756196c-3.9410165688022976 0-5.903198065236209 2.414566188119352-5.903198065236209 7.263126944191753 0 1.2017324678599834 0.2983515048399567 3.0223711291328077 0.9089319286867977 5.448038569651545 0.6008662339299917 2.420117153786123 0.9089312497526406 3.78004535380751 0.9089312497526406 4.082560082897544-5.1538502890616655-6.054455769248307-12.260168563574554-10.89607713930309-21.341158007271588-14.527640950866042-9.07960170228034-3.628787649795413-18.009334120899435-5.448038569651545-26.783646290190514-5.448038569651545-17.55833784956485 0-31.55588398408145 5.291230578906834-41.99957711063326 15.890343954786662-10.439529902301727 10.589399864897134-15.65998906362802 24.813138345256448-15.65998906362802 42.673990244977176 0 22.091894203796983 7.63918857369572 41.31544978637248 22.925890811719004 57.659566174261286 15.279764209873974 16.344116387888793 33.82196795102208 24.51756164431572 55.61412290856241 24.51756164431572 20.887386253103617 0 35.25405598897487-6.060006055980921 43.13331296481192-18.16197888739407 0.9061564458534122 9.988533630967138 3.4733674004673962 14.984188187867403 7.71273547410965 14.984188187867403h34.50609527528285c1.816475437022746 0 3.3248858582228418-0.7590619660913944 4.539107319898903-2.270247870124877 1.210058237425983-1.5139607079327106 1.663830670528114-3.1764036370441313 1.365479165688157-4.992879074066877z m80.35926464013757 67.19294030964376l-29.5104407183826-185.68986335769299c-0.6119674863293767-5.754716522991657-3.791146606206893-8.625829948112369-9.534761876799164-8.625829948112369h-29.96698795538396c-1.8136999541893604 0-3.3332116277888426 0.6813518414273857-4.537719578482211 2.0426671039313073-1.2128337202593684 1.3613159414380789-1.820638661272824 2.7934033004567027-1.820638661272824 4.312914974056184l0.4551594955846667 0.907544187270105 29.511828459799286 188.862103770487c0.6008662339299917 3.3304361449554567 2.5658238921314482 4.995654556900263 5.903198744170367 4.995654556900263h33.59300080128014c3.931302378885448 0 5.904585806652904-2.1189901661127797 5.905973548069596-6.355582756921649v-0.4496085299178958zM966.7898080619054 466.1219482614348c-3.6315631326287994 3.1777913784608245-7.419934256002306 5.065038233064116-11.34846115205437 5.674230236560105-3.9410165688022976 0.6036417167633771-9.237797434441745 0.9061564458534122-15.894507179036736 0.9061564458534122h-8.169282711111007c-3.334599369205535 0-5.300944768823682-1.6652184119448066-5.900423261336981-4.991491332650185l-7.719673502258959-48.57857605163007 14.529028013348581 0.45377175416797405c13.31619429308921 0 23.303340182639662 2.268859449774027 29.964213151484735 6.807966769672931 6.655322003178298 4.543269865214825 9.987145889550447 13.166325009427965 9.987145889550447 25.880265327170495-0.0013877414166927335 6.051680286414921-1.8136999541893604 10.669885472394526-5.448039248585701 13.847676850855347zM450.1433887435123 467.4818764614562c-5.448038569651545 3.474755141884089-14.23067650850862 5.219071419909598-26.331261598505083 5.2190707409754395h-8.629993172362447c-3.3304361449554567 0-5.296781544573604-1.6652184119448066-5.900423261336981-4.991491332650185l-7.719673502258959-48.57857605163007 14.982800446450707 0.45377175416797405c11.802233585156502 0 20.881835287436843 1.658279704861343 27.23880578577518 4.992879074066877 6.355582756921649 3.3304361449554567 10.285497394390404 10.288272877223788 11.803621326573191 20.883223028853536 1.8178631784394383 11.195816385559741 0.0013877414166927335 18.538041195832193-5.443876024335623 22.02112278621644z"  horiz-adv-x="1594" />

    
    <glyph glyph-name="shangla3" unicode="&#58932;" d="M472.064 621.056c11.264 11.264 25.6 16.384 39.936 16.384s29.184-5.12 39.936-16.384c1.024-1.024 1.536-2.56 2.56-3.584l391.168-391.168c22.016-22.016 22.016-57.344 0-78.848-21.504-22.016-57.344-22.016-78.848 0L512 501.76l-354.816-354.816c-22.016-22.016-57.344-22.016-78.848 0-22.016 21.504-22.016 57.344 0 78.848l391.168 391.168c1.024 1.536 1.536 3.072 2.56 4.096z"  horiz-adv-x="1024" />

    
    <glyph glyph-name="xiangji4" unicode="&#58636;" d="M516.795016 552.6728976666666c-133.981308 0-242.442368-108.461059-242.442368-242.442368s108.461059-242.442368 242.442368-242.442368 242.442368 108.461059 242.442367 242.442368-108.461059 242.442368-242.442367 242.442368z m0-421.084113c-98.890966 0-178.641745 79.750779-178.641745 178.641745 0 98.890966 79.750779 178.641745 178.641745 178.641744s178.641745-79.750779 178.641744-178.641744c0-98.890966-79.750779-178.641745-178.641744-178.641745zM912.358879 724.9345796666667h-111.651091l-66.990654 108.461059c-9.570093 15.950156-35.090343 12.760125-38.280374 12.760125H315.823053c-12.760125 0-22.330218-3.190031-25.520249-9.570094l-66.990654-108.461059H114.85109c-63.800623 0-114.841121-51.040498-114.841121-118.031153v-577.395638c0-63.800623 51.040498-118.031153 114.841121-118.031153h797.507789c63.800623 0 114.841121 51.040498 114.841121 118.031153V610.0934576666666c-3.190031 63.800623-54.23053 114.841121-114.841121 114.841122z m47.850467-692.23676c0-28.71028-22.330218-51.040498-51.040499-51.040499H111.661059c-28.71028 0-51.040498 22.330218-51.040498 51.040499V610.0934576666666c0 28.71028 22.330218 51.040498 51.040498 51.040499h127.601246c9.570093 0 12.760125 0 19.140187 12.760124L328.583178 785.5451716666666h354.093458l70.180685-111.651091c3.190031-3.190031 3.190031-6.380062 6.380062-6.380062 3.190031-3.190031 15.950156-3.190031 15.950156-3.190031h130.791277c28.71028 0 51.040498-22.330218 51.040499-51.040499v-580.585669zM848.558255 626.0436136666666h-86.130841c-6.380062 0-12.760125-6.380062-12.760124-12.760125v-35.090342c0-6.380062 6.380062-12.760125 12.760124-12.760125h86.130841c6.380062 0 12.760125 6.380062 12.760125 12.760125v35.090342c0 6.380062-6.380062 12.760125-12.760125 12.760125z"  horiz-adv-x="1030" />

    
    <glyph glyph-name="xinfeng1" unicode="&#59177;" d="M1004.90394 608.7C987.70394 636 958.70394 652 958.70394 652l-67 39.7v92.5c-2.4 33.8-32.6 57.5-57.5 57.5H189.60394c-36.8 0-54.5-24.3-57.5-57.5v-92.5l-80-45.7s-27.3-16-39.1-37.4c-13.6-24.3-13-63.4-13-63.4v-472c0-69.4 69.4-142.9 130.4-142.9h760.7c52.2 0 132.8 42.7 132.8 135.8V538.7c-0.1 0-1.8 42.1-19 70z m-872.2-69.4l-70 46.8 70 46.2v-93z m707.3-25.5L549.50394 341.2s-16.6-13-37.9-12.5c-20.2 0.6-34.4 10.1-34.4 10.1l-294.1 175V763.4c0 19.6 8.3 27.9 27.9 27.9h601.2c19.6 0 27.9-8.3 27.9-27.9v-249.6z m52.2 23.7v96.1l71.7-49.8-71.7-46.3zM605.20394 581.4H313.50394c-11.3 0-21.9-13.6-21.9-24.9 0-11.3 10.7-24.9 21.9-24.9h291.7c11.9 0 20.8 13.6 20.8 24.9 0 11.2-9.5 24.9-20.8 24.9zM716.70394 701.7H307.60394c-11.3 0-21.9-13.6-21.9-24.9 0-11.3 10.7-24.9 21.9-24.9h409.1c11.3 0 20.8 13.6 20.8 24.9-0.1 11.3-9.5 24.9-20.8 24.9z"  horiz-adv-x="1024" />

    


  </font>
</defs>
</svg>
